{
    "asset" : {
        "generator" : "Khronos glTF Blender I/O v1.7.17",
        "version" : "2.0"
    },
    "scene" : 0,
    "scenes" : [
        {
            "name" : "Scene",
            "nodes" : [
                4
            ]
        }
    ],
    "nodes" : [
        {
            "mesh" : 0,
            "name" : "Cube_Material.001_0",
            "scale" : [
                11.214000701904297,
                14.023794174194336,
                14.023794174194336
            ],
            "translation" : [
                -186.7894744873047,
                4.410743713378906e-06,
                -1.2124416828155518
            ]
        },
        {
            "children" : [
                0
            ],
            "name" : "Cube",
            "rotation" : [
                -0.7071068286895752,
                0,
                0,
                0.7071067094802856
            ],
            "scale" : [
                100,
                100,
                100
            ],
            "translation" : [
                0,
                121.24415588378906,
                0
            ]
        },
        {
            "children" : [
                1
            ],
            "name" : "RootNode"
        },
        {
            "children" : [
                2
            ],
            "name" : "1a94bf4a4b374e8b871cd4745a657850.fbx",
            "rotation" : [
                0.7071068286895752,
                0,
                0,
                0.7071068286895752
            ],
            "scale" : [
                0.009999999776482582,
                0.009999999776482582,
                0.009999999776482582
            ]
        },
        {
            "children" : [
                3
            ],
            "name" : "Sketchfab_model",
            "rotation" : [
                -0.5,
                0.5,
                0.5,
                0.5
            ],
            "translation" : [
                4.20158403358073e-06,
                0,
                -186.7894744873047
            ]
        }
    ],
    "materials" : [
        {
            "doubleSided" : true,
            "name" : "Material.001",
            "normalTexture" : {
                "index" : 0
            },
            "pbrMetallicRoughness" : {
                "baseColorTexture" : {
                    "index" : 1
                },
                "metallicFactor" : 0,
                "metallicRoughnessTexture" : {
                    "index" : 2
                },
                "roughnessFactor" : 0.6584128141403198
            }
        }
    ],
    "meshes" : [
        {
            "name" : "Cube_Material.001_0",
            "primitives" : [
                {
                    "attributes" : {
                        "POSITION" : 0,
                        "NORMAL" : 1,
                        "TEXCOORD_0" : 2,
                        "TEXCOORD_1" : 3,
                        "TEXCOORD_2" : 4
                    },
                    "indices" : 5,
                    "material" : 0
                }
            ]
        }
    ],
    "textures" : [
        {
            "sampler" : 0,
            "source" : 0
        },
        {
            "sampler" : 0,
            "source" : 1
        },
        {
            "sampler" : 0,
            "source" : 2
        }
    ],
    "images" : [
        {
            "mimeType" : "image/png",
            "name" : "Material.001_normal",
            "uri" : "texturesCassette/Material_001_normal.png"
        },
        {
            "mimeType" : "image/png",
            "name" : "Material.001_baseColor",
            "uri" : "texturesCassette/Material_001_baseColor.png"
        },
        {
            "mimeType" : "image/png",
            "name" : "Material.001_metallicRoughness",
            "uri" : "texturesCassette/Material_001_metallicRoughness.png"
        }
    ],
    "accessors" : [
        {
            "bufferView" : 0,
            "componentType" : 5126,
            "count" : 5982,
            "max" : [
                0.27841615676879883,
                1.9219460487365723,
                1.1051291227340698
            ],
            "min" : [
                -0.2753928303718567,
                -1.8549425601959229,
                -1.3030787706375122
            ],
            "type" : "VEC3"
        },
        {
            "bufferView" : 1,
            "componentType" : 5126,
            "count" : 5982,
            "type" : "VEC3"
        },
        {
            "bufferView" : 2,
            "componentType" : 5126,
            "count" : 5982,
            "type" : "VEC2"
        },
        {
            "bufferView" : 3,
            "componentType" : 5126,
            "count" : 5982,
            "type" : "VEC2"
        },
        {
            "bufferView" : 4,
            "componentType" : 5126,
            "count" : 5982,
            "type" : "VEC2"
        },
        {
            "bufferView" : 5,
            "componentType" : 5123,
            "count" : 8634,
            "type" : "SCALAR"
        }
    ],
    "bufferViews" : [
        {
            "buffer" : 0,
            "byteLength" : 71784,
            "byteOffset" : 0
        },
        {
            "buffer" : 0,
            "byteLength" : 71784,
            "byteOffset" : 71784
        },
        {
            "buffer" : 0,
            "byteLength" : 47856,
            "byteOffset" : 143568
        },
        {
            "buffer" : 0,
            "byteLength" : 47856,
            "byteOffset" : 191424
        },
        {
            "buffer" : 0,
            "byteLength" : 47856,
            "byteOffset" : 239280
        },
        {
            "buffer" : 0,
            "byteLength" : 17268,
            "byteOffset" : 287136
        }
    ],
    "samplers" : [
        {
            "magFilter" : 9729,
            "minFilter" : 9987
        }
    ],
    "buffers" : [
        {
            "byteLength" : 304404,
            "uri" : "cassette.bin"
        }
    ]
}
