{
    "asset" : {
        "generator" : "Khronos glTF Blender I/O v1.7.17",
        "version" : "2.0"
    },
    "scene" : 0,
    "scenes" : [
        {
            "name" : "Scene",
            "nodes" : [
                0,
                1,
                2,
                3,
                4
            ]
        }
    ],
    "nodes" : [
        {
            "mesh" : 0,
            "name" : "Curve",
            "rotation" : [
                0.35617008805274963,
                0.734049916267395,
                -0.5316238403320312,
                -0.22735369205474854
            ],
            "scale" : [
                2754.494384765625,
                2754.494384765625,
                2754.494384765625
            ],
            "translation" : [
                9.037894248962402,
                9.636638641357422,
                -0.4864528179168701
            ]
        },
        {
            "mesh" : 1,
            "name" : "Curve.001",
            "rotation" : [
                0.05111515522003174,
                -0.7990981936454773,
                0.5978018641471863,
                -0.03823907673358917
            ],
            "scale" : [
                556.6700439453125,
                556.6700439453125,
                556.6700439453125
            ],
            "translation" : [
                -7.71318244934082,
                14.140802383422852,
                6.0041704177856445
            ]
        },
        {
            "mesh" : 2,
            "name" : "Curve.002",
            "rotation" : [
                0.05111515522003174,
                -0.7990981936454773,
                0.5978018641471863,
                -0.03823907673358917
            ],
            "scale" : [
                556.6700439453125,
                556.6700439453125,
                556.6700439453125
            ],
            "translation" : [
                -7.71318244934082,
                14.140802383422852,
                6.0041704177856445
            ]
        },
        {
            "mesh" : 3,
            "name" : "Curve.003",
            "rotation" : [
                0.05111515522003174,
                -0.7990981936454773,
                0.5978018641471863,
                -0.03823907673358917
            ],
            "scale" : [
                556.6700439453125,
                556.6700439453125,
                556.6700439453125
            ],
            "translation" : [
                -7.71318244934082,
                14.140802383422852,
                6.0041704177856445
            ]
        },
        {
            "mesh" : 4,
            "name" : "Curve.004",
            "rotation" : [
                0.7750599980354309,
                0,
                0,
                0.6318876147270203
            ],
            "scale" : [
                3211.07275390625,
                3211.072998046875,
                3211.072998046875
            ],
            "translation" : [
                -12.66177749633789,
                -19.37006950378418,
                -4.880023002624512
            ]
        }
    ],
    "materials" : [
        {
            "doubleSided" : true,
            "name" : "Material.007",
            "pbrMetallicRoughness" : {
                "baseColorFactor" : [
                    1,
                    0.35961252450942993,
                    0.06704438477754593,
                    1
                ],
                "metallicFactor" : 0.5727272629737854,
                "metallicRoughnessTexture" : {
                    "index" : 0
                }
            }
        },
        {
            "doubleSided" : true,
            "name" : "Material.008",
            "pbrMetallicRoughness" : {
                "baseColorFactor" : [
                    0.12016189098358154,
                    0.01916048675775528,
                    0.8000000715255737,
                    1
                ],
                "metallicFactor" : 0.6954545378684998,
                "metallicRoughnessTexture" : {
                    "index" : 1
                }
            }
        },
        {
            "doubleSided" : true,
            "name" : "Material.011",
            "pbrMetallicRoughness" : {
                "baseColorFactor" : [
                    0.800000011920929,
                    0.800000011920929,
                    0.800000011920929,
                    1
                ],
                "metallicFactor" : 0,
                "roughnessFactor" : 0.5
            }
        },
        {
            "doubleSided" : true,
            "name" : "SVGMat.009",
            "pbrMetallicRoughness" : {
                "baseColorFactor" : [
                    0.8468732237815857,
                    0.01599629409611225,
                    0.109461709856987,
                    1
                ],
                "metallicFactor" : 0,
                "roughnessFactor" : 0.4000000059604645
            }
        }
    ],
    "meshes" : [
        {
            "name" : "Curve.001",
            "primitives" : [
                {
                    "attributes" : {
                        "POSITION" : 0,
                        "NORMAL" : 1,
                        "TEXCOORD_0" : 2
                    },
                    "indices" : 3,
                    "material" : 0
                }
            ]
        },
        {
            "name" : "Curve.003",
            "primitives" : [
                {
                    "attributes" : {
                        "POSITION" : 4,
                        "NORMAL" : 5,
                        "TEXCOORD_0" : 6
                    },
                    "indices" : 7,
                    "material" : 1
                }
            ]
        },
        {
            "name" : "Curve.007",
            "primitives" : [
                {
                    "attributes" : {
                        "POSITION" : 8,
                        "NORMAL" : 9,
                        "TEXCOORD_0" : 10
                    },
                    "indices" : 11,
                    "material" : 2
                }
            ]
        },
        {
            "name" : "Curve.008",
            "primitives" : [
                {
                    "attributes" : {
                        "POSITION" : 12,
                        "NORMAL" : 13,
                        "TEXCOORD_0" : 14
                    },
                    "indices" : 15,
                    "material" : 2
                }
            ]
        },
        {
            "name" : "Curve.006",
            "primitives" : [
                {
                    "attributes" : {
                        "POSITION" : 16,
                        "NORMAL" : 17,
                        "TEXCOORD_0" : 18
                    },
                    "indices" : 19,
                    "material" : 3
                }
            ]
        }
    ],
    "textures" : [
        {
            "sampler" : 0,
            "source" : 0
        },
        {
            "sampler" : 0,
            "source" : 0
        }
    ],
    "images" : [
        {
            "mimeType" : "image/png",
            "name" : "streakedmetal-roughness",
            "uri" : "programmingIcon/streakedmetal-roughness.png"
        }
    ],
    "accessors" : [
        {
            "bufferView" : 0,
            "componentType" : 5126,
            "count" : 32357,
            "max" : [
                0.003167535178363323,
                0.0005000000819563866,
                0.002689383691176772
            ],
            "min" : [
                -0.004734952002763748,
                -0.0005000000819563866,
                -0.0040792725048959255
            ],
            "type" : "VEC3"
        },
        {
            "bufferView" : 1,
            "componentType" : 5126,
            "count" : 32357,
            "type" : "VEC3"
        },
        {
            "bufferView" : 2,
            "componentType" : 5126,
            "count" : 32357,
            "type" : "VEC2"
        },
        {
            "bufferView" : 3,
            "componentType" : 5123,
            "count" : 48672,
            "type" : "SCALAR"
        },
        {
            "bufferView" : 4,
            "componentType" : 5126,
            "count" : 1875,
            "max" : [
                0.02133767306804657,
                0.0015818446408957243,
                0.026183586567640305
            ],
            "min" : [
                -0.011546358466148376,
                -0.001500000013038516,
                -0.010295111685991287
            ],
            "type" : "VEC3"
        },
        {
            "bufferView" : 5,
            "componentType" : 5126,
            "count" : 1875,
            "type" : "VEC3"
        },
        {
            "bufferView" : 6,
            "componentType" : 5126,
            "count" : 1875,
            "type" : "VEC2"
        },
        {
            "bufferView" : 7,
            "componentType" : 5123,
            "count" : 2436,
            "type" : "SCALAR"
        },
        {
            "bufferView" : 8,
            "componentType" : 5126,
            "count" : 1188,
            "max" : [
                0.014139501377940178,
                0.0023796563036739826,
                0.01860969141125679
            ],
            "min" : [
                -0.007277385331690311,
                -0.002121830591931939,
                -0.004312018398195505
            ],
            "type" : "VEC3"
        },
        {
            "bufferView" : 9,
            "componentType" : 5126,
            "count" : 1188,
            "type" : "VEC3"
        },
        {
            "bufferView" : 10,
            "componentType" : 5126,
            "count" : 1188,
            "type" : "VEC2"
        },
        {
            "bufferView" : 11,
            "componentType" : 5123,
            "count" : 1428,
            "type" : "SCALAR"
        },
        {
            "bufferView" : 12,
            "componentType" : 5126,
            "count" : 330,
            "max" : [
                0.018899306654930115,
                0.0023793959990143776,
                0.011081799864768982
            ],
            "min" : [
                0.012804759666323662,
                -0.0021211649291217327,
                0.00337601313367486
            ],
            "type" : "VEC3"
        },
        {
            "bufferView" : 13,
            "componentType" : 5126,
            "count" : 330,
            "type" : "VEC3"
        },
        {
            "bufferView" : 14,
            "componentType" : 5126,
            "count" : 330,
            "type" : "VEC2"
        },
        {
            "bufferView" : 15,
            "componentType" : 5123,
            "count" : 396,
            "type" : "SCALAR"
        },
        {
            "bufferView" : 16,
            "componentType" : 5126,
            "count" : 121,
            "max" : [
                0.007653458509594202,
                0,
                -0.00043933605775237083
            ],
            "min" : [
                0.0002483606222085655,
                -0.0007999999797903001,
                -0.00751583743840456
            ],
            "type" : "VEC3"
        },
        {
            "bufferView" : 17,
            "componentType" : 5126,
            "count" : 121,
            "type" : "VEC3"
        },
        {
            "bufferView" : 18,
            "componentType" : 5126,
            "count" : 121,
            "type" : "VEC2"
        },
        {
            "bufferView" : 19,
            "componentType" : 5123,
            "count" : 180,
            "type" : "SCALAR"
        }
    ],
    "bufferViews" : [
        {
            "buffer" : 0,
            "byteLength" : 388284,
            "byteOffset" : 0
        },
        {
            "buffer" : 0,
            "byteLength" : 388284,
            "byteOffset" : 388284
        },
        {
            "buffer" : 0,
            "byteLength" : 258856,
            "byteOffset" : 776568
        },
        {
            "buffer" : 0,
            "byteLength" : 97344,
            "byteOffset" : 1035424
        },
        {
            "buffer" : 0,
            "byteLength" : 22500,
            "byteOffset" : 1132768
        },
        {
            "buffer" : 0,
            "byteLength" : 22500,
            "byteOffset" : 1155268
        },
        {
            "buffer" : 0,
            "byteLength" : 15000,
            "byteOffset" : 1177768
        },
        {
            "buffer" : 0,
            "byteLength" : 4872,
            "byteOffset" : 1192768
        },
        {
            "buffer" : 0,
            "byteLength" : 14256,
            "byteOffset" : 1197640
        },
        {
            "buffer" : 0,
            "byteLength" : 14256,
            "byteOffset" : 1211896
        },
        {
            "buffer" : 0,
            "byteLength" : 9504,
            "byteOffset" : 1226152
        },
        {
            "buffer" : 0,
            "byteLength" : 2856,
            "byteOffset" : 1235656
        },
        {
            "buffer" : 0,
            "byteLength" : 3960,
            "byteOffset" : 1238512
        },
        {
            "buffer" : 0,
            "byteLength" : 3960,
            "byteOffset" : 1242472
        },
        {
            "buffer" : 0,
            "byteLength" : 2640,
            "byteOffset" : 1246432
        },
        {
            "buffer" : 0,
            "byteLength" : 792,
            "byteOffset" : 1249072
        },
        {
            "buffer" : 0,
            "byteLength" : 1452,
            "byteOffset" : 1249864
        },
        {
            "buffer" : 0,
            "byteLength" : 1452,
            "byteOffset" : 1251316
        },
        {
            "buffer" : 0,
            "byteLength" : 968,
            "byteOffset" : 1252768
        },
        {
            "buffer" : 0,
            "byteLength" : 360,
            "byteOffset" : 1253736
        }
    ],
    "samplers" : [
        {
            "magFilter" : 9729,
            "minFilter" : 9987
        }
    ],
    "buffers" : [
        {
            "byteLength" : 1254096,
            "uri" : "programmingIcon.bin"
        }
    ]
}
