{
    "asset" : {
        "generator" : "Khronos glTF Blender I/O v1.7.17",
        "version" : "2.0"
    },
    "scene" : 0,
    "scenes" : [
        {
            "name" : "Scene",
            "nodes" : [
                0,
                1
            ]
        }
    ],
    "nodes" : [
        {
            "mesh" : 0,
            "name" : "PaintBrush3_PaintBrush3_0",
            "rotation" : [
                -0.3497333228588104,
                -0.5862768888473511,
                -0.6617968678474426,
                0.30982401967048645
            ],
            "scale" : [
                6.0135722160339355,
                6.013570785522461,
                6.0135722160339355
            ],
            "translation" : [
                4.965545654296875,
                -0.5102848410606384,
                -0.07918167114257812
            ]
        },
        {
            "mesh" : 1,
            "name" : "PaintBrush3v2_PaintBrush3v2_0",
            "rotation" : [
                -0.860605001449585,
                -0.0059847161173820496,
                -0.01011607050895691,
                0.5091373324394226
            ],
            "scale" : [
                6.013572692871094,
                6.0135722160339355,
                6.0135722160339355
            ],
            "translation" : [
                -3.96929931640625,
                -0.26016727089881897,
                1.9759178161621094
            ]
        }
    ],
    "materials" : [
        {
            "name" : "PaintBrush3",
            "normalTexture" : {
                "index" : 0
            },
            "occlusionTexture" : {
                "index" : 1
            },
            "pbrMetallicRoughness" : {
                "baseColorTexture" : {
                    "index" : 2
                },
                "metallicRoughnessTexture" : {
                    "index" : 1
                }
            }
        },
        {
            "name" : "PaintBrush3v2",
            "normalTexture" : {
                "index" : 3
            },
            "occlusionTexture" : {
                "index" : 4
            },
            "pbrMetallicRoughness" : {
                "baseColorTexture" : {
                    "index" : 5
                },
                "metallicRoughnessTexture" : {
                    "index" : 4
                }
            }
        }
    ],
    "meshes" : [
        {
            "name" : "PaintBrush3_PaintBrush3_0",
            "primitives" : [
                {
                    "attributes" : {
                        "POSITION" : 0,
                        "NORMAL" : 1,
                        "TEXCOORD_0" : 2,
                        "TEXCOORD_1" : 3,
                        "TEXCOORD_2" : 4
                    },
                    "indices" : 5,
                    "material" : 0
                }
            ]
        },
        {
            "name" : "PaintBrush3v2_PaintBrush3v2_0",
            "primitives" : [
                {
                    "attributes" : {
                        "POSITION" : 6,
                        "NORMAL" : 7,
                        "TEXCOORD_0" : 8,
                        "TEXCOORD_1" : 9,
                        "TEXCOORD_2" : 10
                    },
                    "indices" : 5,
                    "material" : 1
                }
            ]
        }
    ],
    "textures" : [
        {
            "sampler" : 0,
            "source" : 0
        },
        {
            "sampler" : 0,
            "source" : 1
        },
        {
            "sampler" : 0,
            "source" : 2
        },
        {
            "sampler" : 0,
            "source" : 3
        },
        {
            "sampler" : 0,
            "source" : 4
        },
        {
            "sampler" : 0,
            "source" : 5
        }
    ],
    "images" : [
        {
            "mimeType" : "image/png",
            "name" : "PaintBrush3_normal",
            "uri" : "drawPen/PaintBrush3_normal.png"
        },
        {
            "mimeType" : "image/png",
            "name" : "PaintBrush3_metallicRoughness",
            "uri" : "drawPen/PaintBrush3_metallicRoughness.png"
        },
        {
            "mimeType" : "image/png",
            "name" : "PaintBrush3_baseColor",
            "uri" : "drawPen/PaintBrush3_baseColor.png"
        },
        {
            "mimeType" : "image/png",
            "name" : "PaintBrush3v2_normal",
            "uri" : "drawPen/PaintBrush3v2_normal.png"
        },
        {
            "mimeType" : "image/png",
            "name" : "PaintBrush3v2_metallicRoughness",
            "uri" : "drawPen/PaintBrush3v2_metallicRoughness.png"
        },
        {
            "mimeType" : "image/png",
            "name" : "PaintBrush3v2_baseColor",
            "uri" : "drawPen/PaintBrush3v2_baseColor.png"
        }
    ],
    "accessors" : [
        {
            "bufferView" : 0,
            "componentType" : 5126,
            "count" : 373,
            "max" : [
                0.2639999985694885,
                0.21789999306201935,
                4.34630012512207
            ],
            "min" : [
                -0.2639999985694885,
                -0.21789999306201935,
                -4.34630012512207
            ],
            "type" : "VEC3"
        },
        {
            "bufferView" : 1,
            "componentType" : 5126,
            "count" : 373,
            "type" : "VEC3"
        },
        {
            "bufferView" : 2,
            "componentType" : 5126,
            "count" : 373,
            "type" : "VEC2"
        },
        {
            "bufferView" : 3,
            "componentType" : 5126,
            "count" : 373,
            "type" : "VEC2"
        },
        {
            "bufferView" : 4,
            "componentType" : 5126,
            "count" : 373,
            "type" : "VEC2"
        },
        {
            "bufferView" : 5,
            "componentType" : 5123,
            "count" : 1632,
            "type" : "SCALAR"
        },
        {
            "bufferView" : 6,
            "componentType" : 5126,
            "count" : 373,
            "max" : [
                0.2639999985694885,
                0.21789999306201935,
                4.34630012512207
            ],
            "min" : [
                -0.2639999985694885,
                -0.21789999306201935,
                -4.34630012512207
            ],
            "type" : "VEC3"
        },
        {
            "bufferView" : 7,
            "componentType" : 5126,
            "count" : 373,
            "type" : "VEC3"
        },
        {
            "bufferView" : 8,
            "componentType" : 5126,
            "count" : 373,
            "type" : "VEC2"
        },
        {
            "bufferView" : 9,
            "componentType" : 5126,
            "count" : 373,
            "type" : "VEC2"
        },
        {
            "bufferView" : 10,
            "componentType" : 5126,
            "count" : 373,
            "type" : "VEC2"
        }
    ],
    "bufferViews" : [
        {
            "buffer" : 0,
            "byteLength" : 4476,
            "byteOffset" : 0
        },
        {
            "buffer" : 0,
            "byteLength" : 4476,
            "byteOffset" : 4476
        },
        {
            "buffer" : 0,
            "byteLength" : 2984,
            "byteOffset" : 8952
        },
        {
            "buffer" : 0,
            "byteLength" : 2984,
            "byteOffset" : 11936
        },
        {
            "buffer" : 0,
            "byteLength" : 2984,
            "byteOffset" : 14920
        },
        {
            "buffer" : 0,
            "byteLength" : 3264,
            "byteOffset" : 17904
        },
        {
            "buffer" : 0,
            "byteLength" : 4476,
            "byteOffset" : 21168
        },
        {
            "buffer" : 0,
            "byteLength" : 4476,
            "byteOffset" : 25644
        },
        {
            "buffer" : 0,
            "byteLength" : 2984,
            "byteOffset" : 30120
        },
        {
            "buffer" : 0,
            "byteLength" : 2984,
            "byteOffset" : 33104
        },
        {
            "buffer" : 0,
            "byteLength" : 2984,
            "byteOffset" : 36088
        }
    ],
    "samplers" : [
        {
            "magFilter" : 9729,
            "minFilter" : 9987
        }
    ],
    "buffers" : [
        {
            "byteLength" : 39072,
            "uri" : "drawPen.bin"
        }
    ]
}
